<svg xmlns:xlink="http://www.w3.org/1999/xlink" xmlns="http://www.w3.org/2000/svg" aria-label="Enefit" viewBox="0 0 366 80" fill="none" class="Logo_base__14DmQ Navbar_logo__Kun8D Logo_primary-darker__EvyEx" width="366"  height="80" ><g clip-path="url(#a)" fill="#008834"><path d="M279.378 43.026c0-14.927 33.851-29.113 46.82-32.139 0 0-1.97-4.724-2.711-5.108-.245-.126-22.299 4.584-43.382 24.396-7.918 7.442-14.312 15.031-21.929 21.789 0 0-12.411 12.704-20.762 13.256 0 0-1.614.217-3.494-.643-2.914-1.314-7.952-7.107-10.286-11.286-4.312 2.838-7.953 8.91-8.085 9.183-.154.265-.427.887-.601 1.167-.182.28-1.664.727-2.167.286l.077-.761c.888-5.22 1.405-9.176 7.96-15.982 0 0-2.649-6.436-2.23-14.011.587-10.601 4.019-18.177 8.729-21.007 0 0 5.765-3.389 10.062-5.688 0 0 1.314-1.125 3.718-.985 2.397.14 5.989 2.166 11.076 6.485 5.046 4.353 10.035 9.203 10.79 12.99 0 0 .419 1.566-.273 3.026l-5.548 8.358c-1.251 1.88-8.036 3.313-18.148 8.267 0 0-.916.398-1.202.538 0 0 3.005 4.57 5.45 5.29 2.446.72 6.255-1.118 14.99-9.497 2.495-2.404 12.173-12.166 19.238-18.155 0 0 18.7-17.037 36.856-22.215 0 0 3.095-1 5.464-.363 4.417 1.202 8.694 3.025 11.335 4.039 1.964 1.02 3.25 1.935 4.815 4.15 11.467-2.48 24.591-3.354 24.591-3.354l3.92 1.496c1.566.587 1.601 1.104.867 1.328-.203.055-15.598 2.278-26.632 5.911 2.816 7.038 3.928 13.117 4.053 24.543.168 15.828-6.296 41.307-31.565 41.67-10.685.147-23.347-10.566-29.49-19.217 0 0-1.188-1.79-1.425-3.215 0 0-.867-8.987-.867-14.542h-.014Zm27.897 22.243c16.373.755 22.012-18.008 22.397-31.454 0-5.925-.58-11.774-1.545-16.603-24.018 9.427-39.175 21.202-44.165 31.51 10.839 16.205 23.306 16.547 23.306 16.547h.007Zm-73.383-27.093c4.962-2.55 16.457-6.499 20.063-7.687l.105-.133c-1.957-2.879-4.682-5.835-8.393-8.7 0 0-7.952-6.275-11.299-7.875l-.098-.056c-1.433 3.403-2.425 7.798-2.474 10.915 0 0-.678 6.89 2.096 13.543M141.838 18.779c.164.002.323.005.475.005v.007h5.402v-4.423c-2.977-.308-9.888-.755-12.593-.042l-.209.069c-1.284.41-5.109 1.636-5.109 8.673v3.137h-3.941v5.067h3.941v33.892h7.96V31.272h7.806v-5.067h-7.806v-4.353c0-3.143 2.324-3.104 4.074-3.073ZM152.711 14.437h7.932v6.388h-7.932v-6.388ZM196.057 64.088l.002.007v-.007h-.002Z" fill="#008834"></path><path d="m194.983 59.12 1.074 4.968c-.307.077-.615.156-.924.235-3.086.788-6.385 1.63-12.24 1.63-.37 0-1.167-.09-2.327-.314-1.174-.216-2.383-.775-3.662-1.747-1.265-.936-2.397-2.348-3.361-4.214-.992-1.9-1.502-4.493-1.502-7.833V31.314h-4.543v-5.095h4.543l1.537-6.89h6.527v6.89h14.032v5.095h-14.032v20.67c0 5.451 2.187 8.17 6.59 8.17 1.502 0 7.379-.874 8.288-1.035ZM0 17.68v47.589h34.172v-6.275L9.05 58.987l.16-15.402h22.083v-5.577H9.21V24.165h24.43V17.68H0Z" fill="#008834"></path><path fill-rule="evenodd" clip-rule="evenodd" d="M113.906 64.626a48.747 48.747 0 0 0 5.402-1.44l.021-.006-.028-.028v-5.144c-.636.203-1.649.448-3.012.671-1.376.245-2.928.503-4.682.741-1.775.238-3.669.44-5.653.6-2.013.148-3.969.232-5.842.232-.971 0-2.677-.154-3.494-.518a7.323 7.323 0 0 1-2.09-1.404c-.58-.608-1.048-1.279-1.348-2.006a5.835 5.835 0 0 1-.497-2.369v-5.087h24.724c.916 0 1.671-.336 2.286-1.02.628-.657.936-1.594.936-2.852V37.17c0-1.244-.168-2.502-.559-3.788a9.042 9.042 0 0 0-1.964-3.55c-.943-1.069-2.208-1.97-3.815-2.627-1.615-.657-3.648-1-6.115-1H97.89c-2.355 0-4.361.37-6.031 1.09-1.65.734-3.012 1.699-4.088 2.943-1.048 1.257-1.86 2.662-2.362 4.241-.524 1.587-.762 3.264-.762 5.039v12.46c0 3.319.517 5.932 1.593 7.798 1.063 1.901 2.293 3.299 3.648 4.25 1.377.95 2.677 1.53 3.941 1.746 1.265.203 2.09.308 2.446.308 3.124 0 8.77-.133 11.272-.427 2.488-.286 4.605-.622 6.359-1.027Zm-2.075-31.544c.922 1.083 1.384 2.466 1.384 4.179v6.883H92.676V37.26c0-1.706.483-3.09 1.384-4.18.902-1.068 2.376-1.6 4.417-1.6h8.951c2.027 0 3.48.532 4.403 1.6Z" fill="#008834"></path><path d="M160.566 26.226h-7.931V65.27h7.931V26.226ZM62.418 26.094 48.56 28.26l-1.209-2.124h-6.526v39.14h8.078V33.648c19.417-4.654 19.385.684 19.359 4.963l-.002.46v26.205h8.057l.147-25.786c0-13.515-8.449-14.165-14.053-13.39l.007-.006Z" fill="#008834"></path></g><defs><clipPath id="a"><path fill="currentColor" d="M0 0h365.765v80H0z"></path></clipPath></defs></svg>